HIERARCHY
ROOT SpineBase
{
  OFFSET 0.000000 0.000000 0.000000
  CHANNELS 6 Xposition Yposition Zposition Zrotation Xrotation Yrotation
  JOINT SpineMid
  {
    OFFSET -0.000000 25.269906 0.000000
    CHANNELS 3 Zrotation Xrotation Yrotation
    JOINT SpineShoulder
    {
      OFFSET -0.007469 18.818091 -0.572198
      CHANNELS 3 Zrotation Xrotation Yrotation
      JOINT Neck
      {
        OFFSET -0.013016 6.242702 -0.446078
        CHANNELS 3 Zrotation Xrotation Yrotation
        JOINT Head
        {
          OFFSET 2.915233 13.048374 1.266205
          CHANNELS 3 Zrotation Xrotation Yrotation
          End Site
          {
            OFFSET 0 0 0
          }
        }
      }
      JOINT ShoulderLeft
      {
        OFFSET -10.610006 -2.988231 -7.410938
        CHANNELS 3 Zrotation Xrotation Yrotation
        JOINT ElbowLeft
        {
          OFFSET -4.487273 -18.608670 -1.710577
          CHANNELS 3 Zrotation Xrotation Yrotation
          JOINT WristLeft
          {
            OFFSET 23.653804 3.135325 -9.920198
            CHANNELS 3 Zrotation Xrotation Yrotation
            JOINT HandLeft
            {
              OFFSET 3.317942 0.520878 -0.487308
              CHANNELS 3 Zrotation Xrotation Yrotation
              JOINT HandTipLeft
              {
                OFFSET 4.215183 0.758582 0.795527
                CHANNELS 3 Zrotation Xrotation Yrotation
                End Site
                {
                  OFFSET 0 0 0
                }
              }
              JOINT ThumbLeft
              {
                OFFSET -2.189162 0.441231 -5.691866
                CHANNELS 3 Zrotation Xrotation Yrotation
                End Site
                {
                  OFFSET 0 0 0
                }
              }
            }
          }
        }
      }
      JOINT ShoulderRight
      {
        OFFSET 10.916423 -2.253248 5.854452
        CHANNELS 3 Zrotation Xrotation Yrotation
        JOINT ElbowRight
        {
          OFFSET 4.726809 -25.102538 2.947347
          CHANNELS 3 Zrotation Xrotation Yrotation
          JOINT WristRight
          {
            OFFSET -3.474357 10.107389 -24.551532
            CHANNELS 3 Zrotation Xrotation Yrotation
            JOINT HandRight
            {
              OFFSET 0.241359 -0.867491 -4.417360
              CHANNELS 3 Zrotation Xrotation Yrotation
              JOINT HandTipRight
              {
                OFFSET -0.425253 1.415375 -3.381781
                CHANNELS 3 Zrotation Xrotation Yrotation
                End Site
                {
                  OFFSET 0 0 0
                }
              }
              JOINT ThumbRight
              {
                OFFSET -3.496784 0.586671 -1.233456
                CHANNELS 3 Zrotation Xrotation Yrotation
                End Site
                {
                  OFFSET 0 0 0
                }
              }
            }
          }
        }
      }
    }
  }
  JOINT HipLeft
  {
    OFFSET -4.920246 1.085100 -5.715990
    CHANNELS 3 Zrotation Xrotation Yrotation
    JOINT KneeLeft
    {
      OFFSET -5.362084 -37.261218 4.028299
      CHANNELS 3 Zrotation Xrotation Yrotation
      JOINT AnkleLeft
      {
        OFFSET -4.074898 -30.728075 7.622691
        CHANNELS 3 Zrotation Xrotation Yrotation
        JOINT FootLeft
        {
          OFFSET 5.796907 -8.384487 1.227443
          CHANNELS 3 Zrotation Xrotation Yrotation
          End Site
          {
            OFFSET 0 0 0
          }
        }
      }
    }
  }
  JOINT HipRight
  {
    OFFSET 4.673999 0.101645 -0.106606
    CHANNELS 3 Zrotation Xrotation Yrotation
    JOINT KneeRight
    {
      OFFSET -1.996461 -35.322061 3.425380
      CHANNELS 3 Zrotation Xrotation Yrotation
      JOINT AnkleRight
      {
        OFFSET -5.345212 -33.944729 8.291927
        CHANNELS 3 Zrotation Xrotation Yrotation
        JOINT FootRight
        {
          OFFSET 4.611869 -3.420341 -10.477344
          CHANNELS 3 Zrotation Xrotation Yrotation
          End Site
          {
            OFFSET 0 0 0
          }
        }
      }
    }
  }
}
MOTION
Frames: 6
Frame Time: 0.033333
17.730215 75.924069 359.165713 0.000000 0.000000 -30.313174 -0.000000 0.000000 30.313174 -0.000000 0.000000 0.000000 -0.000000 0.000000 0.000000 0.000000 0.000000 0.000000 -0.000000 0.000000 0.000000 -0.000000 0.000000 0.000000 -0.000000 0.000000 0.000000 -0.000000 0.000000 0.000000 0.000000 0.000000 0.000000 0.000000 0.000000 0.000000 -0.000000 0.000000 0.000000 -0.000000 0.000000 0.000000 -0.000000 0.000000 0.000000 -0.000000 0.000000 0.000000 0.000000 0.000000 0.000000 0.000000 0.000000 0.000000 -0.000000 0.000000 30.313174 -0.000000 0.000000 0.000000 -0.000000 0.000000 0.000000 0.000000 0.000000 0.000000 -0.000000 0.000000 30.313174 -0.000000 0.000000 0.000000 -0.000000 0.000000 0.000000 0.000000 0.000000 0.000000
17.827534 75.925958 359.062878 0.132502 0.058186 -30.460547 -0.084716 -0.117326 30.460393 -0.000000 0.000000 0.000000 0.191697 -1.362357 0.288506 0.000000 0.000000 0.000000 -0.000000 0.000000 0.000000 -0.043620 0.320977 -2.574434 0.322880 -1.639538 11.240725 6.403983 0.181380 -17.262824 0.000000 0.000000 0.000000 0.000000 0.000000 0.000000 -0.000000 0.000000 0.000000 -0.149104 -1.464093 -0.841630 -4.088719 5.851111 19.720316 4.809790 -11.532130 -10.809458 0.000000 0.000000 0.000000 0.000000 0.000000 0.000000 -0.084716 -0.117326 30.460393 -0.000000 0.000000 0.000000 -0.312604 7.133583 4.963739 0.000000 0.000000 0.000000 -0.084716 -0.117326 30.460393 -0.000000 0.000000 0.000000 -0.000000 0.000000 0.000000 0.000000 0.000000 0.000000
17.912894 75.922802 358.970891 0.246741 0.102818 -30.613604 -0.159992 -0.214138 30.613084 -0.000000 0.000000 0.000000 0.281397 -2.691929 0.582482 0.000000 0.000000 0.000000 -1.449756 0.274553 0.070312 1.338467 0.267231 -4.547666 0.735783 -2.657230 18.673306 9.656367 -0.916679 -27.567538 0.000000 0.000000 0.000000 0.000000 0.000000 0.000000 -0.947768 0.334961 -0.045525 0.654635 -3.011988 -1.509199 -8.046899 9.166412 34.866229 5.528234 -21.820413 -17.551080 0.000000 0.000000 0.000000 0.000000 0.000000 0.000000 -0.159992 -0.214138 30.613084 -0.000000 0.000000 0.000000 -1.314447 13.195010 9.334867 0.000000 0.000000 0.000000 -0.159992 -0.214138 30.613084 -0.000000 0.000000 0.000000 -0.000000 0.000000 0.000000 0.000000 0.000000 0.000000
17.986292 75.914602 358.889752 0.342671 0.133863 -30.772459 -0.225939 -0.290335 30.771486 -0.000000 0.000000 0.000000 0.265881 -3.987410 0.878075 0.000000 0.000000 0.000000 -2.002465 0.348920 0.105578 1.790723 0.316805 -5.831999 1.121119 -3.297573 23.687623 11.207840 -1.869151 -33.985752 0.000000 0.000000 0.000000 0.000000 0.000000 0.000000 -1.266925 0.363900 -0.076400 0.841792 -4.001322 -2.066233 -10.745597 10.790427 44.498730 4.705382 -29.061164 -20.669034 0.000000 0.000000 0.000000 0.000000 0.000000 0.000000 -0.225939 -0.290335 30.771486 -0.000000 0.000000 0.000000 -2.659169 17.424719 12.594773 0.000000 0.000000 0.000000 -0.010437 -1.181461 30.797482 0.271161 0.875795 -0.025301 -0.000000 0.000000 0.000000 0.000000 0.000000 0.000000
18.047731 75.901358 358.819461 0.420248 0.151295 -30.937222 -0.282685 -0.345816 30.935814 -0.000000 0.000000 0.000000 0.141793 -5.247712 1.171481 0.000000 0.000000 0.000000 -2.440588 0.381603 0.139730 2.090497 0.312056 -6.472409 1.445575 -3.692052 26.996257 11.774930 -2.373645 -38.021107 0.000000 0.000000 0.000000 0.000000 0.000000 0.000000 -1.483311 0.300585 -0.113990 0.945822 -4.645615 -2.488838 -12.202864 11.592818 49.754889 4.046058 -33.407850 -21.337881 0.000000 0.000000 0.000000 0.000000 0.000000 0.000000 -0.880791 0.262062 30.794341 0.202588 -0.828375 0.142501 -3.933868 19.427876 14.286278 0.000000 0.000000 0.000000 0.028158 -1.435097 30.973995 0.294098 1.093914 -0.036158 -0.000000 0.000000 0.000000 0.000000 0.000000 0.000000
18.097210 75.883070 358.760018 0.479433 0.155087 -31.108006 -0.330369 -0.380480 31.106260 -0.000000 0.000000 0.000000 -0.094365 -6.471886 1.458950 0.000000 0.000000 0.000000 -2.764371 0.372808 0.172203 2.235828 0.252441 -6.478158 1.698620 -3.913996 28.986480 11.637579 -2.342531 -40.366389 0.000000 0.000000 0.000000 0.000000 0.000000 0.000000 -1.597171 0.144966 -0.158662 0.972013 -4.945600 -2.775350 -12.685528 11.973056 51.737011 4.184020 -35.343074 -20.385676 0.000000 0.000000 0.000000 0.000000 0.000000 0.000000 -0.977657 0.292631 30.952288 0.208934 -0.910167 0.155135 -4.853987 19.067143 14.102646 0.000000 0.000000 0.000000 0.087491 -1.621689 31.158273 0.284637 1.278336 -0.047888 -0.000000 0.000000 0.000000 0.000000 0.000000 0.000000
